<?xml version="1.0" encoding="UTF-8" standalone="no"?>
<!DOCTYPE svg PUBLIC "-//W3C//DTD SVG 1.1//EN"
 "http://www.w3.org/Graphics/SVG/1.1/DTD/svg11.dtd">
<!-- Generated by graphviz version 2.34.0 (20140101.1016)
 -->
<!-- Title: States Pages: 1 -->
<svg width="781pt" height="576pt"
 viewBox="0.00 0.00 780.79 576.00" xmlns="http://www.w3.org/2000/svg" xmlns:xlink="http://www.w3.org/1999/xlink">
<g id="graph0" class="graph" transform="scale(1 1) rotate(0) translate(4 572)">
<title>States</title>
<polygon fill="white" stroke="white" points="-4,4 -4,-572 776.789,-572 776.789,4 -4,4"/>
<text text-anchor="middle" x="386.394" y="-500" font-family="Times,serif" font-size="20.00">Identity Constellation</text>
<text text-anchor="middle" x="386.394" y="-478" font-family="Times,serif" font-size="20.00">Two linked identities</text>
<!-- root1 -->
<g id="node1" class="node"><title>root1</title>
<ellipse fill="none" stroke="black" cx="257.596" cy="-450" rx="48.1917" ry="18"/>
<text text-anchor="middle" x="257.596" y="-446.3" font-family="Times,serif" font-size="14.00">identity&#45;A</text>
</g>
<!-- ne1 -->
<g id="node2" class="node"><title>ne1</title>
<ellipse fill="none" stroke="black" cx="41.5963" cy="-306" rx="41.6928" ry="18"/>
<text text-anchor="middle" x="41.5963" y="-302.3" font-family="Times,serif" font-size="14.00">alt name</text>
</g>
<!-- root1&#45;&gt;ne1 -->
<g id="edge1" class="edge"><title>root1&#45;&gt;ne1</title>
<path fill="none" stroke="black" d="M233.655,-434.039C194.401,-407.87 116.372,-355.851 72.8244,-326.819"/>
<polygon fill="black" stroke="black" points="74.6008,-323.797 64.3388,-321.162 70.7179,-329.621 74.6008,-323.797"/>
</g>
<!-- an1 -->
<g id="node3" class="node"><title>an1</title>
<ellipse fill="none" stroke="black" cx="185.596" cy="-306" rx="41.6928" ry="18"/>
<text text-anchor="middle" x="185.596" y="-302.3" font-family="Times,serif" font-size="14.00">alt name</text>
</g>
<!-- root1&#45;&gt;an1 -->
<g id="edge2" class="edge"><title>root1&#45;&gt;an1</title>
<path fill="none" stroke="black" d="M248.623,-432.053C236.159,-407.126 213.511,-361.829 199.028,-332.864"/>
<polygon fill="black" stroke="black" points="202.059,-331.099 194.456,-323.72 195.798,-334.23 202.059,-331.099"/>
</g>
<!-- ed1 -->
<g id="node4" class="node"><title>ed1</title>
<ellipse fill="none" stroke="black" cx="329.596" cy="-306" rx="48.9926" ry="18"/>
<text text-anchor="middle" x="329.596" y="-302.3" font-family="Times,serif" font-size="14.00">exist dates</text>
</g>
<!-- root1&#45;&gt;ed1 -->
<g id="edge3" class="edge"><title>root1&#45;&gt;ed1</title>
<path fill="none" stroke="black" d="M266.57,-432.053C279.033,-407.126 301.682,-361.829 316.164,-332.864"/>
<polygon fill="black" stroke="black" points="319.394,-334.23 320.736,-323.72 313.133,-331.099 319.394,-334.23"/>
</g>
<!-- cr1 -->
<g id="node5" class="node"><title>cr1</title>
<ellipse fill="none" stroke="black" cx="473.596" cy="-306" rx="52.7911" ry="18"/>
<text text-anchor="middle" x="473.596" y="-302.3" font-family="Times,serif" font-size="14.00">cpf relation</text>
</g>
<!-- root1&#45;&gt;cr1 -->
<g id="edge5" class="edge"><title>root1&#45;&gt;cr1</title>
<path fill="none" stroke="black" d="M281.537,-434.039C320.381,-408.144 397.19,-356.937 440.989,-327.738"/>
<polygon fill="black" stroke="black" points="443.169,-330.491 449.548,-322.032 439.286,-324.667 443.169,-330.491"/>
</g>
<!-- occ1 -->
<g id="node6" class="node"><title>occ1</title>
<ellipse fill="none" stroke="black" cx="689.596" cy="-306" rx="83.3857" ry="18"/>
<text text-anchor="middle" x="689.596" y="-302.3" font-family="Times,serif" font-size="14.00">occupation/function</text>
</g>
<!-- root1&#45;&gt;occ1 -->
<g id="edge4" class="edge"><title>root1&#45;&gt;occ1</title>
<path fill="none" stroke="black" d="M293.685,-437.97C369.23,-412.789 544.441,-354.385 634.288,-324.436"/>
<polygon fill="black" stroke="black" points="635.643,-327.674 644.023,-321.191 633.429,-321.033 635.643,-327.674"/>
</g>
<!-- rr1 -->
<g id="node7" class="node"><title>rr1</title>
<ellipse fill="none" stroke="black" cx="617.596" cy="-378" rx="71.4873" ry="18"/>
<text text-anchor="middle" x="617.596" y="-374.3" font-family="Times,serif" font-size="14.00">resource relation</text>
</g>
<!-- root1&#45;&gt;rr1 -->
<g id="edge6" class="edge"><title>root1&#45;&gt;rr1</title>
<path fill="none" stroke="black" d="M300.307,-441.458C362.388,-429.042 478.113,-405.897 551.324,-391.255"/>
<polygon fill="black" stroke="black" points="552.242,-394.64 561.362,-389.247 550.869,-387.776 552.242,-394.64"/>
</g>
<!-- cr2 -->
<g id="node13" class="node"><title>cr2</title>
<ellipse fill="none" stroke="black" cx="502.396" cy="-234" rx="52.7911" ry="18"/>
<text text-anchor="middle" x="502.396" y="-230.3" font-family="Times,serif" font-size="14.00">cpf relation</text>
</g>
<!-- cr1&#45;&gt;cr2 -->
<g id="edge7" class="edge"><title>cr1&#45;&gt;cr2</title>
<path fill="none" stroke="black" d="M487.121,-288.588C491.074,-280.624 495.068,-271.002 498.167,-262.062"/>
<polygon fill="black" stroke="black" points="501.55,-262.974 501.236,-252.384 494.877,-260.858 501.55,-262.974"/>
</g>
<!-- root2 -->
<g id="node8" class="node"><title>root2</title>
<ellipse fill="none" stroke="black" cx="207.196" cy="-198" rx="47.3916" ry="18"/>
<text text-anchor="middle" x="207.196" y="-194.3" font-family="Times,serif" font-size="14.00">identity&#45;B</text>
</g>
<!-- ne2 -->
<g id="node9" class="node"><title>ne2</title>
<ellipse fill="none" stroke="black" cx="41.5963" cy="-234" rx="41.6928" ry="18"/>
<text text-anchor="middle" x="41.5963" y="-230.3" font-family="Times,serif" font-size="14.00">alt name</text>
</g>
<!-- root2&#45;&gt;ne2 -->
<g id="edge16" class="edge"><title>root2&#45;&gt;ne2</title>
<path fill="none" stroke="black" d="M165.836,-206.991C142.532,-212.057 113.329,-218.406 89.0911,-223.675"/>
<polygon fill="black" stroke="black" points="88.0676,-220.316 79.0393,-225.86 89.5546,-227.156 88.0676,-220.316"/>
</g>
<!-- an2 -->
<g id="node10" class="node"><title>an2</title>
<ellipse fill="none" stroke="black" cx="185.596" cy="-90" rx="41.6928" ry="18"/>
<text text-anchor="middle" x="185.596" y="-86.3" font-family="Times,serif" font-size="14.00">alt name</text>
</g>
<!-- root2&#45;&gt;an2 -->
<g id="edge14" class="edge"><title>root2&#45;&gt;an2</title>
<path fill="none" stroke="black" d="M203.532,-179.679C200.145,-162.743 195.063,-137.331 191.172,-117.878"/>
<polygon fill="black" stroke="black" points="194.6,-117.17 189.206,-108.05 187.736,-118.542 194.6,-117.17"/>
</g>
<!-- an3 -->
<g id="node11" class="node"><title>an3</title>
<ellipse fill="none" stroke="black" cx="77.5963" cy="-162" rx="41.6928" ry="18"/>
<text text-anchor="middle" x="77.5963" y="-158.3" font-family="Times,serif" font-size="14.00">alt name</text>
</g>
<!-- root2&#45;&gt;an3 -->
<g id="edge15" class="edge"><title>root2&#45;&gt;an3</title>
<path fill="none" stroke="black" d="M168.663,-187.296C154.096,-183.25 137.397,-178.611 122.309,-174.42"/>
<polygon fill="black" stroke="black" points="123.239,-171.046 112.667,-171.742 121.365,-177.791 123.239,-171.046"/>
</g>
<!-- ed2 -->
<g id="node12" class="node"><title>ed2</title>
<ellipse fill="none" stroke="black" cx="329.596" cy="-90" rx="48.9926" ry="18"/>
<text text-anchor="middle" x="329.596" y="-86.3" font-family="Times,serif" font-size="14.00">exist dates</text>
</g>
<!-- root2&#45;&gt;ed2 -->
<g id="edge13" class="edge"><title>root2&#45;&gt;ed2</title>
<path fill="none" stroke="black" d="M226.053,-181.362C246.568,-163.26 279.535,-134.172 302.749,-113.689"/>
<polygon fill="black" stroke="black" points="305.334,-116.076 310.516,-106.835 300.702,-110.827 305.334,-116.076"/>
</g>
<!-- occ2 -->
<g id="node14" class="node"><title>occ2</title>
<ellipse fill="none" stroke="black" cx="617.596" cy="-90" rx="83.3857" ry="18"/>
<text text-anchor="middle" x="617.596" y="-86.3" font-family="Times,serif" font-size="14.00">occupation/function</text>
</g>
<!-- root2&#45;&gt;occ2 -->
<g id="edge11" class="edge"><title>root2&#45;&gt;occ2</title>
<path fill="none" stroke="black" d="M246.547,-187.645C317.855,-168.879 468.97,-129.112 554.726,-106.545"/>
<polygon fill="black" stroke="black" points="555.816,-109.877 564.596,-103.948 554.034,-103.108 555.816,-109.877"/>
</g>
<!-- occ22 -->
<g id="node15" class="node"><title>occ22</title>
<ellipse fill="none" stroke="black" cx="545.596" cy="-18" rx="83.3857" ry="18"/>
<text text-anchor="middle" x="545.596" y="-14.3" font-family="Times,serif" font-size="14.00">occupation/function</text>
</g>
<!-- root2&#45;&gt;occ22 -->
<g id="edge12" class="edge"><title>root2&#45;&gt;occ22</title>
<path fill="none" stroke="black" d="M234.889,-183.27C294.561,-151.529 435.496,-76.5642 505.165,-39.5059"/>
<polygon fill="black" stroke="black" points="506.92,-42.5371 514.105,-34.7509 503.632,-36.357 506.92,-42.5371"/>
</g>
<!-- rr2 -->
<g id="node16" class="node"><title>rr2</title>
<ellipse fill="none" stroke="black" cx="689.596" cy="-198" rx="71.4873" ry="18"/>
<text text-anchor="middle" x="689.596" y="-194.3" font-family="Times,serif" font-size="14.00">resource relation</text>
</g>
<!-- root2&#45;&gt;rr2 -->
<g id="edge9" class="edge"><title>root2&#45;&gt;rr2</title>
<path fill="none" stroke="black" d="M254.771,-198C336.927,-198 506.314,-198 607.722,-198"/>
<polygon fill="black" stroke="black" points="607.923,-201.5 617.923,-198 607.923,-194.5 607.923,-201.5"/>
</g>
<!-- cr2&#45;&gt;cr1 -->
<g id="edge8" class="edge"><title>cr2&#45;&gt;cr1</title>
<path fill="none" stroke="black" d="M488.871,-251.412C484.919,-259.376 480.924,-268.998 477.825,-277.938"/>
<polygon fill="black" stroke="black" points="474.443,-277.026 474.756,-287.616 481.115,-279.142 474.443,-277.026"/>
</g>
<!-- cr2&#45;&gt;root2 -->
<g id="edge10" class="edge"><title>cr2&#45;&gt;root2</title>
<path fill="none" stroke="black" d="M442.496,-226.695C386.373,-219.851 303.706,-209.769 252.773,-203.558"/>
<polygon fill="black" stroke="black" points="442.303,-230.197 452.653,-227.934 443.151,-223.249 442.303,-230.197"/>
</g>
</g>
</svg>
