<?xml version="1.0" encoding="UTF-8" standalone="no"?>
<!DOCTYPE svg PUBLIC "-//W3C//DTD SVG 1.1//EN"
 "http://www.w3.org/Graphics/SVG/1.1/DTD/svg11.dtd">
<!-- Generated by graphviz version 2.34.0 (20140101.1016)
 -->
<!-- Title: States Pages: 1 -->
<svg width="876pt" height="494pt"
 viewBox="0.00 0.00 875.79 494.00" xmlns="http://www.w3.org/2000/svg" xmlns:xlink="http://www.w3.org/1999/xlink">
<g id="graph0" class="graph" transform="scale(1 1) rotate(0) translate(4 490)">
<title>States</title>
<polygon fill="white" stroke="white" points="-4,4 -4,-490 871.788,-490 871.788,4 -4,4"/>
<text text-anchor="middle" x="433.894" y="-418" font-family="Times,serif" font-size="20.00">Identity Constellation</text>
<text text-anchor="middle" x="433.894" y="-396" font-family="Times,serif" font-size="20.00">(R) repeatable fields</text>
<!-- an1 -->
<g id="node1" class="node"><title>an1</title>
<ellipse fill="none" stroke="black" cx="327.195" cy="-268" rx="53.8905" ry="18"/>
<text text-anchor="middle" x="327.195" y="-264.3" font-family="Times,serif" font-size="14.00">name/alt(R)</text>
</g>
<!-- pref -->
<g id="node8" class="node"><title>pref</title>
<ellipse fill="none" stroke="black" cx="177.195" cy="-328" rx="44.393" ry="18"/>
<text text-anchor="middle" x="177.195" y="-324.3" font-family="Times,serif" font-size="14.00">preferred</text>
</g>
<!-- an1&#45;&gt;pref -->
<g id="edge4" class="edge"><title>an1&#45;&gt;pref</title>
<path fill="none" stroke="black" d="M292.405,-281.916C270.292,-290.761 241.559,-302.254 218.319,-311.55"/>
<polygon fill="black" stroke="black" points="216.716,-308.422 208.731,-315.385 219.316,-314.921 216.716,-308.422"/>
</g>
<!-- usedate -->
<g id="node9" class="node"><title>usedate</title>
<ellipse fill="none" stroke="black" cx="177.195" cy="-268" rx="43.5923" ry="18"/>
<text text-anchor="middle" x="177.195" y="-264.3" font-family="Times,serif" font-size="14.00">use dates</text>
</g>
<!-- an1&#45;&gt;usedate -->
<g id="edge21" class="edge"><title>an1&#45;&gt;usedate</title>
<path fill="none" stroke="black" d="M273.041,-268C259.4,-268 244.758,-268 231.127,-268"/>
<polygon fill="black" stroke="black" points="230.934,-264.5 220.934,-268 230.934,-271.5 230.934,-264.5"/>
</g>
<!-- name_components -->
<g id="node10" class="node"><title>name_components</title>
<ellipse fill="none" stroke="black" cx="197.195" cy="-218" rx="54.6905" ry="18"/>
<text text-anchor="middle" x="197.195" y="-214.3" font-family="Times,serif" font-size="14.00">components</text>
</g>
<!-- an1&#45;&gt;name_components -->
<g id="edge22" class="edge"><title>an1&#45;&gt;name_components</title>
<path fill="none" stroke="black" d="M291.672,-254.337C276.606,-248.543 258.859,-241.717 242.839,-235.555"/>
<polygon fill="black" stroke="black" points="243.717,-232.143 233.127,-231.82 241.204,-238.676 243.717,-232.143"/>
</g>
<!-- language -->
<g id="node11" class="node"><title>language</title>
<ellipse fill="none" stroke="black" cx="207.195" cy="-168" rx="43.5923" ry="18"/>
<text text-anchor="middle" x="207.195" y="-164.3" font-family="Times,serif" font-size="14.00">language</text>
</g>
<!-- an1&#45;&gt;language -->
<g id="edge1" class="edge"><title>an1&#45;&gt;language</title>
<path fill="none" stroke="black" d="M307.11,-251.262C287.143,-234.624 256.385,-208.992 234.27,-190.563"/>
<polygon fill="black" stroke="black" points="236.473,-187.842 226.55,-184.129 231.992,-193.22 236.473,-187.842"/>
</g>
<!-- script -->
<g id="node12" class="node"><title>script</title>
<ellipse fill="none" stroke="black" cx="237.195" cy="-118" rx="31.3957" ry="18"/>
<text text-anchor="middle" x="237.195" y="-114.3" font-family="Times,serif" font-size="14.00">script</text>
</g>
<!-- an1&#45;&gt;script -->
<g id="edge2" class="edge"><title>an1&#45;&gt;script</title>
<path fill="none" stroke="black" d="M316.517,-250.204C300.735,-223.901 271.087,-174.487 252.847,-144.087"/>
<polygon fill="black" stroke="black" points="255.727,-142.084 247.581,-135.31 249.725,-145.686 255.727,-142.084"/>
</g>
<!-- authorized_form -->
<g id="node13" class="node"><title>authorized_form</title>
<ellipse fill="none" stroke="black" cx="267.195" cy="-58" rx="53.9813" ry="26.7407"/>
<text text-anchor="middle" x="267.195" y="-61.8" font-family="Times,serif" font-size="14.00">authorized</text>
<text text-anchor="middle" x="267.195" y="-46.8" font-family="Times,serif" font-size="14.00">form</text>
</g>
<!-- an1&#45;&gt;authorized_form -->
<g id="edge3" class="edge"><title>an1&#45;&gt;authorized_form</title>
<path fill="none" stroke="black" d="M321.975,-249.731C312.115,-215.22 290.581,-139.851 277.643,-94.5675"/>
<polygon fill="black" stroke="black" points="280.976,-93.4937 274.863,-84.84 274.245,-95.4168 280.976,-93.4937"/>
</g>
<!-- ed1 -->
<g id="node2" class="node"><title>ed1</title>
<ellipse fill="none" stroke="black" cx="387.195" cy="-188" rx="48.9926" ry="18"/>
<text text-anchor="middle" x="387.195" y="-184.3" font-family="Times,serif" font-size="14.00">exist dates</text>
</g>
<!-- occ1 -->
<g id="node3" class="node"><title>occ1</title>
<ellipse fill="none" stroke="black" cx="607.195" cy="-168" rx="68.6788" ry="26.7407"/>
<text text-anchor="middle" x="607.195" y="-171.8" font-family="Times,serif" font-size="14.00">occupation</text>
<text text-anchor="middle" x="607.195" y="-156.8" font-family="Times,serif" font-size="14.00">or function(R)</text>
</g>
<!-- cr1 -->
<g id="node4" class="node"><title>cr1</title>
<ellipse fill="none" stroke="black" cx="787.195" cy="-228" rx="80.6858" ry="18"/>
<text text-anchor="middle" x="787.195" y="-224.3" font-family="Times,serif" font-size="14.00">identity relation(R)</text>
</g>
<!-- rr1 -->
<g id="node5" class="node"><title>rr1</title>
<ellipse fill="none" stroke="black" cx="777.195" cy="-118" rx="83.6854" ry="18"/>
<text text-anchor="middle" x="777.195" y="-114.3" font-family="Times,serif" font-size="14.00">resource relation(R)</text>
</g>
<!-- root1 -->
<g id="node6" class="node"><title>root1</title>
<ellipse fill="none" stroke="black" cx="527.195" cy="-318" rx="55.4913" ry="18"/>
<text text-anchor="middle" x="527.195" y="-314.3" font-family="Times,serif" font-size="14.00">identity root</text>
</g>
<!-- root1&#45;&gt;an1 -->
<g id="edge15" class="edge"><title>root1&#45;&gt;an1</title>
<path fill="none" stroke="black" d="M483.304,-307.027C453.111,-299.479 412.827,-289.408 380.744,-281.387"/>
<polygon fill="black" stroke="black" points="381.189,-277.891 370.639,-278.861 379.492,-284.682 381.189,-277.891"/>
</g>
<!-- root1&#45;&gt;ed1 -->
<g id="edge16" class="edge"><title>root1&#45;&gt;ed1</title>
<path fill="none" stroke="black" d="M508.892,-301.005C484.367,-278.231 440.713,-237.695 412.898,-211.867"/>
<polygon fill="black" stroke="black" points="415.212,-209.239 405.502,-204.999 410.448,-214.369 415.212,-209.239"/>
</g>
<!-- root1&#45;&gt;occ1 -->
<g id="edge17" class="edge"><title>root1&#45;&gt;occ1</title>
<path fill="none" stroke="black" d="M536.686,-300.204C549.364,-276.433 572.109,-233.786 588.338,-203.357"/>
<polygon fill="black" stroke="black" points="591.529,-204.811 593.147,-194.34 585.353,-201.516 591.529,-204.811"/>
</g>
<!-- root1&#45;&gt;cr1 -->
<g id="edge18" class="edge"><title>root1&#45;&gt;cr1</title>
<path fill="none" stroke="black" d="M565.28,-304.817C609.71,-289.437 683.468,-263.905 733.65,-246.535"/>
<polygon fill="black" stroke="black" points="735.051,-249.754 743.356,-243.175 732.761,-243.139 735.051,-249.754"/>
</g>
<!-- root1&#45;&gt;rr1 -->
<g id="edge19" class="edge"><title>root1&#45;&gt;rr1</title>
<path fill="none" stroke="black" d="M548.08,-301.292C592.323,-265.897 695.639,-183.245 747.041,-142.123"/>
<polygon fill="black" stroke="black" points="749.502,-144.637 755.124,-135.657 745.129,-139.171 749.502,-144.637"/>
</g>
<!-- place -->
<g id="node7" class="node"><title>place</title>
<ellipse fill="none" stroke="black" cx="377.195" cy="-368" rx="68.7879" ry="18"/>
<text text-anchor="middle" x="377.195" y="-364.3" font-family="Times,serif" font-size="14.00">related place(R)</text>
</g>
<!-- root1&#45;&gt;place -->
<g id="edge14" class="edge"><title>root1&#45;&gt;place</title>
<path fill="none" stroke="black" d="M488.566,-330.876C470.596,-336.866 448.949,-344.082 429.538,-350.552"/>
<polygon fill="black" stroke="black" points="428.299,-347.276 419.919,-353.759 430.512,-353.917 428.299,-347.276"/>
</g>
<!-- biog -->
<g id="node19" class="node"><title>biog</title>
<ellipse fill="none" stroke="black" cx="337.195" cy="-318" rx="42.4939" ry="18"/>
<text text-anchor="middle" x="337.195" y="-314.3" font-family="Times,serif" font-size="14.00">biog hist</text>
</g>
<!-- root1&#45;&gt;biog -->
<g id="edge20" class="edge"><title>root1&#45;&gt;biog</title>
<path fill="none" stroke="black" d="M471.728,-318C445.928,-318 415.393,-318 389.94,-318"/>
<polygon fill="black" stroke="black" points="389.735,-314.5 379.735,-318 389.735,-321.5 389.735,-314.5"/>
</g>
<!-- et -->
<g id="node20" class="node"><title>et</title>
<ellipse fill="none" stroke="black" cx="397.195" cy="-18" rx="49.2915" ry="18"/>
<text text-anchor="middle" x="397.195" y="-14.3" font-family="Times,serif" font-size="14.00">entity type</text>
</g>
<!-- root1&#45;&gt;et -->
<g id="edge12" class="edge"><title>root1&#45;&gt;et</title>
<path fill="none" stroke="black" d="M519.452,-300.132C497.602,-249.707 435.346,-106.04 409.097,-45.467"/>
<polygon fill="black" stroke="black" points="412.249,-43.9375 405.061,-36.1536 405.826,-46.7208 412.249,-43.9375"/>
</g>
<!-- subject -->
<g id="node21" class="node"><title>subject</title>
<ellipse fill="none" stroke="black" cx="517.195" cy="-98" rx="75.2868" ry="18"/>
<text text-anchor="middle" x="517.195" y="-94.3" font-family="Times,serif" font-size="14.00">topical subject(R)</text>
</g>
<!-- root1&#45;&gt;subject -->
<g id="edge10" class="edge"><title>root1&#45;&gt;subject</title>
<path fill="none" stroke="black" d="M526.377,-299.996C524.641,-261.804 520.577,-172.408 518.487,-126.426"/>
<polygon fill="black" stroke="black" points="521.975,-126.083 518.025,-116.252 514.982,-126.401 521.975,-126.083"/>
</g>
<!-- src -->
<g id="node22" class="node"><title>src</title>
<ellipse fill="none" stroke="black" cx="727.195" cy="-318" rx="46.5926" ry="18"/>
<text text-anchor="middle" x="727.195" y="-314.3" font-family="Times,serif" font-size="14.00">source(R)</text>
</g>
<!-- root1&#45;&gt;src -->
<g id="edge13" class="edge"><title>root1&#45;&gt;src</title>
<path fill="none" stroke="black" d="M582.64,-318C609.805,-318 642.483,-318 669.892,-318"/>
<polygon fill="black" stroke="black" points="670.117,-321.5 680.117,-318 670.117,-314.5 670.117,-321.5"/>
</g>
<!-- citation -->
<g id="node23" class="node"><title>citation</title>
<ellipse fill="none" stroke="black" cx="747.195" cy="-368" rx="50.0912" ry="18"/>
<text text-anchor="middle" x="747.195" y="-364.3" font-family="Times,serif" font-size="14.00">citation(R)</text>
</g>
<!-- root1&#45;&gt;citation -->
<g id="edge11" class="edge"><title>root1&#45;&gt;citation</title>
<path fill="none" stroke="black" d="M572.512,-328.299C607.925,-336.348 657.209,-347.549 694.402,-356.002"/>
<polygon fill="black" stroke="black" points="694.024,-359.505 704.551,-358.308 695.575,-352.679 694.024,-359.505"/>
</g>
<!-- surname -->
<g id="node14" class="node"><title>surname</title>
<ellipse fill="none" stroke="black" cx="57.1949" cy="-268" rx="53.8905" ry="18"/>
<text text-anchor="middle" x="57.1949" y="-264.3" font-family="Times,serif" font-size="14.00">surname(R)</text>
</g>
<!-- name_components&#45;&gt;surname -->
<g id="edge5" class="edge"><title>name_components&#45;&gt;surname</title>
<path fill="none" stroke="black" d="M160.045,-231.268C142.741,-237.448 121.974,-244.865 103.645,-251.411"/>
<polygon fill="black" stroke="black" points="102.273,-248.184 94.0326,-254.844 104.627,-254.776 102.273,-248.184"/>
</g>
<!-- forename -->
<g id="node15" class="node"><title>forename</title>
<ellipse fill="none" stroke="black" cx="57.1949" cy="-218" rx="57.3905" ry="18"/>
<text text-anchor="middle" x="57.1949" y="-214.3" font-family="Times,serif" font-size="14.00">forename(R)</text>
</g>
<!-- name_components&#45;&gt;forename -->
<g id="edge6" class="edge"><title>name_components&#45;&gt;forename</title>
<path fill="none" stroke="black" d="M142.265,-218C136.615,-218 130.828,-218 125.061,-218"/>
<polygon fill="black" stroke="black" points="124.733,-214.5 114.733,-218 124.733,-221.5 124.733,-214.5"/>
</g>
<!-- numeration -->
<g id="node16" class="node"><title>numeration</title>
<ellipse fill="none" stroke="black" cx="57.1949" cy="-168" rx="51.9908" ry="18"/>
<text text-anchor="middle" x="57.1949" y="-164.3" font-family="Times,serif" font-size="14.00">numeration</text>
</g>
<!-- name_components&#45;&gt;numeration -->
<g id="edge7" class="edge"><title>name_components&#45;&gt;numeration</title>
<path fill="none" stroke="black" d="M160.045,-204.732C142.604,-198.503 121.644,-191.017 103.209,-184.433"/>
<polygon fill="black" stroke="black" points="104.143,-181.051 93.5487,-180.983 101.789,-187.643 104.143,-181.051"/>
</g>
<!-- prefix -->
<g id="node17" class="node"><title>prefix</title>
<ellipse fill="none" stroke="black" cx="57.1949" cy="-118" rx="44.393" ry="18"/>
<text text-anchor="middle" x="57.1949" y="-114.3" font-family="Times,serif" font-size="14.00">prefix(R)</text>
</g>
<!-- name_components&#45;&gt;prefix -->
<g id="edge8" class="edge"><title>name_components&#45;&gt;prefix</title>
<path fill="none" stroke="black" d="M174.077,-201.487C150.492,-184.641 113.768,-158.409 87.7865,-139.851"/>
<polygon fill="black" stroke="black" points="89.5935,-136.841 79.4218,-133.876 85.5248,-142.537 89.5935,-136.841"/>
</g>
<!-- suffix -->
<g id="node18" class="node"><title>suffix</title>
<ellipse fill="none" stroke="black" cx="57.1949" cy="-68" rx="43.5923" ry="18"/>
<text text-anchor="middle" x="57.1949" y="-64.3" font-family="Times,serif" font-size="14.00">suffix(R)</text>
</g>
<!-- name_components&#45;&gt;suffix -->
<g id="edge9" class="edge"><title>name_components&#45;&gt;suffix</title>
<path fill="none" stroke="black" d="M181.135,-200.793C156.345,-174.232 108.653,-123.134 80.2033,-92.6519"/>
<polygon fill="black" stroke="black" points="82.4493,-89.9287 73.0674,-85.0062 77.3319,-94.7049 82.4493,-89.9287"/>
</g>
</g>
</svg>
